# xmcd CD database file
#
# Track frame offsets:
#	150
#	14838
#	27931
#	48335
#	62923
#	84926
#	98936
#	124787
#	143865
#	163666
#	180522
#	193456
#	208986
#	224800
#	242369
#	258763
#
# Disc length: 3606 seconds
#
# Revision: 0
# Processed by: cddbd v1.5.2PL0 Copyright (c) Steve Scherf et al.
# Submitted via: CDex 1.70beta2
#
DISCID=ef0e1410
DTITLE=Bandari - The Best Of Bandari - Moonlight Valley
DYEAR=2010
DGENRE=New Age
TTITLE0=Childhood Memory
TTITLE1=Luna
TTITLE2=Dreamcatche
TTITLE3=The First Snowflakes
TTITLE4=Snowdream
TTITLE5=New Morning
TTITLE6=Gold Wings
TTITLE7=Tenderness
TTITLE8=Goodbye Little Susy
TTITLE9=Serenade in Green
TTITLE10=Your Smile
TTITLE11=Indian Summerrain
TTITLE12=Princess of the Moon
TTITLE13=The Froggy Dew
TTITLE14=The Best Friends
TTITLE15=Dragon Heart
EXTD=YEAR: 2010
EXTT0=
EXTT1=
EXTT2=
EXTT3=
EXTT4=
EXTT5=
EXTT6=
EXTT7=
EXTT8=
EXTT9=
EXTT10=
EXTT11=
EXTT12=
EXTT13=
EXTT14=
EXTT15=
PLAYORDER=
